<mxfile host="65bd71144e">
    <diagram id="hyXTzDfZUhhmsDUPOdG6" name="Page-1">
        <mxGraphModel dx="504" dy="845" grid="1" gridSize="10" guides="1" tooltips="1" connect="1" arrows="1" fold="1" page="1" pageScale="1" pageWidth="500" pageHeight="1500" background="#FFFFFF" math="0" shadow="0">
            <root>
                <mxCell id="0"/>
                <mxCell id="1" parent="0"/>
                <mxCell id="4" value="" style="edgeStyle=none;html=1;strokeWidth=2;strokeColor=#000000;entryX=0.5;entryY=0;entryDx=0;entryDy=0;" parent="1" source="diSnjzynUhi2UMkX59iC-2" target="118" edge="1">
                    <mxGeometry relative="1" as="geometry"/>
                </mxCell>
                <mxCell id="diSnjzynUhi2UMkX59iC-2" value="&lt;font style=&quot;font-size: 18px&quot;&gt;h&lt;br&gt;&lt;/font&gt;" style="shape=parallelogram;html=1;strokeWidth=3;perimeter=parallelogramPerimeter;whiteSpace=wrap;rounded=1;arcSize=12;size=0.23;fillColor=#0000FF;fontColor=#000000;strokeColor=#000000;" parent="1" vertex="1">
                    <mxGeometry x="705.39" y="130" width="167.49" height="80" as="geometry"/>
                </mxCell>
                <mxCell id="diSnjzynUhi2UMkX59iC-12" value="" style="edgeStyle=orthogonalEdgeStyle;rounded=0;orthogonalLoop=1;jettySize=auto;html=1;fontSize=18;strokeColor=#000000;strokeWidth=2;" parent="1" source="diSnjzynUhi2UMkX59iC-5" target="diSnjzynUhi2UMkX59iC-2" edge="1">
                    <mxGeometry relative="1" as="geometry"/>
                </mxCell>
                <mxCell id="diSnjzynUhi2UMkX59iC-5" value="INICIO" style="strokeWidth=3;html=1;shape=mxgraph.flowchart.terminator;whiteSpace=wrap;fontSize=18;fillColor=#FF0000;fontStyle=1;fontColor=#000000;strokeColor=#000000;" parent="1" vertex="1">
                    <mxGeometry x="736.63" y="10" width="105" height="60" as="geometry"/>
                </mxCell>
                <mxCell id="diSnjzynUhi2UMkX59iC-6" value="FIN" style="strokeWidth=3;html=1;shape=mxgraph.flowchart.terminator;whiteSpace=wrap;fontSize=18;fillColor=#FF0000;fontColor=#000000;strokeColor=#000000;fontStyle=1" parent="1" vertex="1">
                    <mxGeometry x="995" y="700" width="100" height="60" as="geometry"/>
                </mxCell>
                <mxCell id="93" value="" style="edgeStyle=none;html=1;strokeColor=#000000;strokeWidth=2;exitX=0.5;exitY=0.833;exitDx=0;exitDy=0;exitPerimeter=0;" parent="1" source="diSnjzynUhi2UMkX59iC-7" target="diSnjzynUhi2UMkX59iC-6" edge="1">
                    <mxGeometry relative="1" as="geometry"/>
                </mxCell>
                <mxCell id="diSnjzynUhi2UMkX59iC-7" value="rebotes" style="strokeWidth=3;html=1;shape=mxgraph.flowchart.document2;whiteSpace=wrap;size=0.25;fontSize=18;fillColor=#FF8000;fontColor=#000000;strokeColor=#000000;" parent="1" vertex="1">
                    <mxGeometry x="982.5" y="570" width="125" height="60" as="geometry"/>
                </mxCell>
                <mxCell id="97" style="edgeStyle=none;html=1;exitX=0.5;exitY=1;exitDx=0;exitDy=0;exitPerimeter=0;strokeWidth=2;strokeColor=#000000;entryX=0.5;entryY=0;entryDx=0;entryDy=0;" parent="1" source="2" target="98" edge="1">
                    <mxGeometry relative="1" as="geometry">
                        <mxPoint x="787.9473684210527" y="540" as="targetPoint"/>
                    </mxGeometry>
                </mxCell>
                <mxCell id="2" value="&lt;div&gt;&lt;font face=&quot;helvetica&quot;&gt;&lt;span style=&quot;font-size: 18px&quot;&gt;h &amp;gt;&amp;nbsp;&lt;/span&gt;&lt;/font&gt;&lt;span style=&quot;font-size: 18px ; font-family: &amp;#34;helvetica&amp;#34;&quot;&gt;quinta&lt;/span&gt;&lt;/div&gt;&lt;font face=&quot;helvetica&quot;&gt;&lt;span style=&quot;font-size: 18px&quot;&gt;&lt;br&gt;&lt;/span&gt;&lt;/font&gt;" style="strokeWidth=3;html=1;shape=mxgraph.flowchart.decision;whiteSpace=wrap;fillColor=#FFFF00;fontColor=#000000;strokeColor=#000000;" parent="1" vertex="1">
                    <mxGeometry x="689.12" y="410" width="200" height="170" as="geometry"/>
                </mxCell>
                <mxCell id="11" value="&lt;b&gt;&lt;font style=&quot;font-size: 16px&quot;&gt;Falso&lt;/font&gt;&lt;/b&gt;" style="text;html=1;align=center;verticalAlign=middle;resizable=0;points=[];autosize=1;strokeColor=none;fillColor=none;fontColor=#000000;" parent="1" vertex="1">
                    <mxGeometry x="841.63" y="430" width="60" height="20" as="geometry"/>
                </mxCell>
                <mxCell id="12" value="&lt;b&gt;&lt;font style=&quot;font-size: 16px&quot;&gt;Verdadero&lt;/font&gt;&lt;/b&gt;" style="text;html=1;align=center;verticalAlign=middle;resizable=0;points=[];autosize=1;strokeColor=none;fillColor=none;fontSize=16;fontColor=#000000;" parent="1" vertex="1">
                    <mxGeometry x="824" y="560" width="90" height="20" as="geometry"/>
                </mxCell>
                <mxCell id="71" value="" style="edgeStyle=none;html=1;exitX=1;exitY=0.5;exitDx=0;exitDy=0;exitPerimeter=0;entryX=0.5;entryY=0;entryDx=0;entryDy=0;strokeWidth=2;strokeColor=#000000;endArrow=none;entryPerimeter=0;" edge="1" parent="1" source="2" target="diSnjzynUhi2UMkX59iC-7">
                    <mxGeometry relative="1" as="geometry">
                        <mxPoint x="1040" y="680" as="targetPoint"/>
                        <Array as="points">
                            <mxPoint x="1045" y="495"/>
                        </Array>
                        <mxPoint x="920" y="335" as="sourcePoint"/>
                    </mxGeometry>
                </mxCell>
                <mxCell id="99" style="edgeStyle=none;html=1;strokeColor=#000000;strokeWidth=2;exitX=0.5;exitY=1;exitDx=0;exitDy=0;" parent="1" source="98" edge="1">
                    <mxGeometry relative="1" as="geometry">
                        <mxPoint x="790" y="380" as="targetPoint"/>
                        <Array as="points">
                            <mxPoint x="790" y="760"/>
                            <mxPoint x="610" y="760"/>
                            <mxPoint x="610" y="380"/>
                        </Array>
                        <mxPoint x="820" y="760" as="sourcePoint"/>
                    </mxGeometry>
                </mxCell>
                <mxCell id="98" value="&lt;font style=&quot;font-size: 18px&quot;&gt;h = h - (h * 10%)&lt;br&gt;rebotes = rebotes + 1&lt;br&gt;&lt;/font&gt;" style="rounded=1;whiteSpace=wrap;html=1;absoluteArcSize=1;arcSize=14;strokeWidth=3;fillColor=#00FF00;fontColor=#000000;strokeColor=#000000;" vertex="1" parent="1">
                    <mxGeometry x="696.49" y="620" width="185.25" height="100" as="geometry"/>
                </mxCell>
                <mxCell id="121" style="edgeStyle=none;html=1;exitX=0.5;exitY=1;exitDx=0;exitDy=0;entryX=0.5;entryY=0;entryDx=0;entryDy=0;entryPerimeter=0;strokeWidth=2;strokeColor=#000000;" edge="1" parent="1" source="118" target="2">
                    <mxGeometry relative="1" as="geometry"/>
                </mxCell>
                <mxCell id="118" value="&lt;font style=&quot;font-size: 18px&quot;&gt;rebotes = 0&lt;br&gt;quinta = (h / 5)&lt;br&gt;&lt;/font&gt;" style="rounded=1;whiteSpace=wrap;html=1;absoluteArcSize=1;arcSize=14;strokeWidth=3;fillColor=#00FF00;fontColor=#000000;strokeColor=#000000;" vertex="1" parent="1">
                    <mxGeometry x="699.13" y="260" width="179.99" height="100" as="geometry"/>
                </mxCell>
            </root>
        </mxGraphModel>
    </diagram>
</mxfile>